<?xml version="1.0" encoding="utf-8"?>
<!-- Generator: Adobe Illustrator 21.0.2, SVG Export Plug-In . SVG Version: 6.00 Build 0)  -->
<svg version="1.1" id="Capa_1" xmlns="http://www.w3.org/2000/svg" xmlns:xlink="http://www.w3.org/1999/xlink" x="0px" y="0px"
	 viewBox="0 0 468 87.9" style="enable-background:new 0 0 468 87.9;" xml:space="preserve">
<style type="text/css">
	.st0{fill:url(#hLGJes.tif-3_1_);}
</style>
<title>GUMDEV</title>
<linearGradient id="hLGJes.tif-3_1_" gradientUnits="userSpaceOnUse" x1="29.4737" y1="-161.205" x2="446.4701" y2="-161.205" gradientTransform="matrix(1 0 0 -1 0.61 -113.0655)">
	<stop  offset="0" style="stop-color:#000"/>
	<stop  offset="0.51" style="stop-color:#000"/>
	<stop  offset="1" style="stop-color:#000"/>
</linearGradient>
<path id="hLGJes.tif-3" class="st0" d="M239.7,12v70.7l-20.1-0.2V56.9l-4.6,11.4l-17.9,0.4L190,54.2v28.1h-19.7V12h19.6
	c4.6,9.4,10.5,22.6,15.4,33l14.9-32.8 M200.4,60.7l-10.2-20l0.1,8.6l8.8,17.3h7.1l14.6-31.5c0.4,0.1,1-0.1,1.4,0.1v45.1h8.1
	c0-22.2,0-44.4,0-66.3h-8.1L200.4,60.7z M187.9,14l-7.6-0.1c0,22,0.1,44.5,0.1,66.5h8V34.9h1.2L200.2,56l3.8-8L187.9,14z M172.4,14
	c0,22.5,0,44.2,0,66.5h5.1c0-22.4,0-44.4,0-66.5L172.4,14z M232.6,14.1c0,21.5,0,45.3,0,66.3l5.6,0.1c0-22.1,0-44.2,0-66.4
	L232.6,14.1z M208,66.7l4.8-0.2l7.1-15.6l0.3-10L208,66.7z M251.1,12.4c4.9,0,9.6,0,14.4,0c7.8,0.1,15.6-0.2,23.4,0.4
	c12.9,1,20.7,7.6,22,20.2c1,10.2,0.8,20.6-0.5,30.8c-1.5,11.5-9.4,18.3-21.1,18.9c-12.6,0.6-25.2,0.1-38.3,0.1L251.1,12.4z
	 M253.1,14.8v66.1h5.4c6.8,0,13.7,0.2,20.5-0.1c9.4-0.4,17.6-6,18.8-15c1.4-10.9,1.2-22.1,0.6-33.2c0-5.3-6.7-9.7-15.8-9.4
	c5.5,0,7.5,8.3,7.9,12.2c0.6,8.1,0.6,16.3,0.1,24.4c-0.3,5.6-2.6,11.2-8.5,12.5c-6.5,1.5-13.4,0.9-20.6,0.9V14.8L253.1,14.8z
	 M263.6,15.2v56.2h8.2V22c5.9,0,11.4-0.5,16.8,0.1c5.9,0.7,11.1,4.1,11.5,10.1c0.7,11,1,22.3-0.5,33.2c-0.8,5.6-3.3,11.7-12.6,15.3
	c12.3-0.1,20.4-6.2,21.6-16.8c1.1-11.2,1-22.5-0.2-33.7c-1.8-8-7-13.8-14.9-14.8C283.7,14.3,273.6,15.2,263.6,15.2L263.6,15.2z
	 M273.8,71.6c9.8-0.2,14.3-4,14.7-12.9c0.4-7.6,0.4-15.3,0-22.9c-0.5-8.4-5.8-12.4-14.7-11.6L273.8,71.6z M54,54.8V44.4h36.4
	c0,10.9,0.9,24.9-7.1,32.2c-3.3,2.9-7.5,4.8-11.8,5.4c-7,1.2-14.2,1.3-21.3,0.5c-11.4-1.5-18.9-9.2-19.9-21c0-10-0.6-20,0.4-29.8
	S40.2,14,50.2,13.1c6.6-0.6,13.3-0.6,19.9,0c10.8,1.1,19.2,9.4,20.2,22L69.2,35c0,0-0.6-5.4-3.8-7.7c-2.1-1.6-4.3-1.5-7.1-0.6
	c-3.5,1.1-5.5,5.7-5.6,8.2c-0.3,8.6-0.3,17.3,0,25.9c0.2,4.6,1.7,10.1,7.1,10.1c3.2,0,7.1-4.5,8.1-9.6c0.2-2.1,0.3-4.2,0.3-6.4
	 M69.9,52.9c0,2.6,0.2,4.9,0,7.2c-0.9,8.2-6.9,13.7-15,13.7s-13.5-5-14.4-13.5C40,54.9,39.8,49.4,39.8,44
	C39.7,32.7,40.1,20.2,54,14.7c-9.7,0.3-20.2,6.7-21.1,15.8c-1.1,10.9-1.1,21.9,0,32.8c0.9,9.9,9.8,17.2,19.9,17.7
	c11.9,0.6,21.8-5.1,24.2-15c2.3-8.2,2.1-19.7,2.1-19.7H56.1v6.6L69.9,52.9z M87.8,33.2c-1.1-10.5-9.8-18-21.4-18.6
	s-22.3,6-23.5,16.4s-0.8,20.9-0.2,31.3c0.4,6.6,6.2,10.1,12.5,9.4c-2.8-2.3-4.2-3.5-4.4-10.5c-0.6-8.8-0.6-17.6-0.2-26.4
	c0.4-6.2,4.9-11.4,11-12.7c6.8-1.4,16.6,1.6,18,11.2 M67.4,80.9c15.4-1.1,21.4-12.7,20.9-34.6h-7.2C83,78.9,67.4,80.9,67.4,80.9z
	 M64.7,24.2c3.4,1.8,5.8,5.3,6.2,9.1h5.9C75.4,26.3,71.6,23.7,64.7,24.2L64.7,24.2z M99.9,14.7H122c0,15-0.2,29.6,0.2,44.2
	c0.2,3.8,1.4,7.4,3.5,10.5c2.5,3.7,6.1,3.7,8.6,0c2.1-3.1,3.3-6.8,3.5-10.5c0.4-12.8,0.2-25.6,0.2-38.4c0-1.8,0-3.6,0-5.7h21.9
	c0,16.8,0.7,34.2-0.3,50.6c-0.7,11.8-11.3,18.7-24.2,19c-5,0.1-9.9,0-14.9-0.4c-10.8-1-20.2-10.3-20.4-21.1 M101.8,61.3
	c0.1,11.8,8.5,20.1,21,21s24-6.7,24.7-18.1c0.9-15.7,0.2-31.6,0.2-47.6h-8v5.1c0,12.1,0,24.3,0,36.5c0,10.6-5.4,16.7-14.9,16.7
	s-15-5.9-15-16.5c0-12.1,0-24.3,0-36.5c0-1.8,0-3.5,0-5.3h-7.8 M136.8,81.8c11.3,0.5,19.2-5.9,20.5-17.2c1.3-12.1,0.9-28.5,0.9-40.9
	c0-2.3,0-4.6,0-7H150c0,1.8,0,3.5,0,5.1c0,12.1-0.1,24.3,0,36.4C150.2,68.3,148.5,75.8,136.8,81.8L136.8,81.8z M112,16.6
	c0,15.6-0.2,30.5,0.1,45.4c0.1,6.6,6.6,12.5,13.5,10.3c-5-4.5-5.7-10.2-5.6-16.4c0.2-10.6,0.1-21.3,0.1-31.9v-7.4H112z M376.4,72.4
	V83H321V14.1h55.3v10.4h-32.5v18.1h27.4v10.9h-27.3v18.7L376.4,72.4z M323,81.6h41.1V74h-32.8V22.8h32.8v-7H323L323,81.6z
	 M341.3,72.2V25.1h-7.8v47.1L341.3,72.2z M359.4,45.2h-15.6v6.4h15.6L359.4,45.2z M374.2,81.7v-7.1h-7.4v7.1H374.2z M366.9,15.7v6.9
	h7.5v-6.9H366.9z M369.4,51.7v-6.6h-7.6v6.6H369.4z M447.1,13.7c-2.5,7.6-4,13.8-6.2,20.6c-4.9,14.8-9.9,29.6-14.7,44.5l-1.7,4.6
	h-4.1L407.6,83l-23.4-69.9c6.8,0,12.8-0.2,18.7,0.2c1.1,0.1,2.6,0.1,2.6,0.1c3.2,9.7,6.8,23.1,10.3,34.2c3.4-10.5,6.6-19.7,9.2-29.1
	c0.7-2.4,0.7-4,0.9-4.7 M408.6,80.1l6.8,0.1c0,0,0.9-2.3,1.3-3.5c5.5-16.7,11-33.4,16.6-50.1c1.2-3.7,2.5-7.5,3.7-11.3l-8.8-0.1
	c0,0-0.7,2.4-2.1,6.6c-0.7,2.1-1.3,4.1-2,6.2l-11.5,36.4l-1.2,0.1c-0.5-1.2-1-2.4-1.3-3.6c-4.2-13.3-10.4-32.3-14.6-45.6l-8.2,0.3
	 M444.9,15.5h-6l-10.3,31.2c-3.7,11.3-7.3,22.3-11,33.6l5.9,0.1L444.9,15.5z M403.6,15.3h-6.1c4.6,14.6,9.5,30.3,14.2,45.5l3.2-10.3
	L403.6,15.3z"/>
</svg>
